<svg width="16" height="16" viewBox="0 0 16 16" fill="none" xmlns="http://www.w3.org/2000/svg">
<path d="M8.00001 0.6875C6.73752 0.687225 5.49647 1.01381 4.39766 1.63547C3.29884 2.25714 2.37968 3.15269 1.72966 4.23498C1.07964 5.31726 0.720895 6.5494 0.688344 7.81146C0.655794 9.07353 0.950548 10.3225 1.54392 11.4369L0.745869 13.831C0.679764 14.0292 0.670171 14.242 0.718164 14.4453C0.766157 14.6487 0.86984 14.8347 1.01759 14.9824C1.16534 15.1302 1.35133 15.2339 1.55469 15.2818C1.75806 15.3298 1.97077 15.3202 2.16899 15.2541L4.56313 14.4561C5.54383 14.9777 6.63047 15.269 7.74058 15.308C8.85068 15.347 9.95507 15.1325 10.9699 14.6809C11.9848 14.2293 12.8834 13.5525 13.5976 12.7017C14.3118 11.851 14.8228 10.8487 15.0918 9.77098C15.3608 8.69326 15.3808 7.56842 15.1502 6.48184C14.9196 5.39525 14.4444 4.37549 13.7609 3.49994C13.0773 2.6244 12.2033 1.91608 11.2051 1.42877C10.2069 0.941461 9.1108 0.687956 8.00001 0.6875ZM8.00001 14.1875C6.91226 14.1882 5.84359 13.9018 4.90204 13.3571C4.8331 13.3171 4.75646 13.2923 4.67718 13.2841C4.59791 13.276 4.51781 13.2848 4.4422 13.31L1.81251 14.1875L2.68931 11.5578C2.71458 11.4823 2.72351 11.4022 2.71551 11.3229C2.70751 11.2436 2.68276 11.167 2.6429 11.098C1.96085 9.91877 1.68701 8.54744 1.86386 7.19672C2.04071 5.846 2.65836 4.5914 3.62101 3.62754C4.58365 2.66368 5.83747 2.04444 7.18797 1.86588C8.53846 1.68733 9.91013 1.95944 11.0902 2.64C12.2703 3.32056 13.1927 4.37153 13.7146 5.62987C14.2364 6.88822 14.3283 8.28359 13.9762 9.59953C13.624 10.9155 12.8474 12.0784 11.7669 12.908C10.6864 13.7375 9.36225 14.1873 8.00001 14.1875Z" fill="black"/>
</svg>
