<svg width="29" height="25" viewBox="0 0 29 25" fill="none" xmlns="http://www.w3.org/2000/svg">
<path d="M28.5673 8.18665C28.5673 16.9366 15.5935 24.0191 15.041 24.3116C14.8954 24.39 14.7326 24.431 14.5673 24.431C14.4019 24.431 14.2391 24.39 14.0935 24.3116C13.541 24.0191 0.567261 16.9366 0.567261 8.18665C0.569577 6.13193 1.38684 4.16203 2.83974 2.70913C4.29265 1.25622 6.26254 0.438961 8.31726 0.436646C10.8985 0.436646 13.1585 1.54665 14.5673 3.4229C15.976 1.54665 18.236 0.436646 20.8173 0.436646C22.872 0.438961 24.8419 1.25622 26.2948 2.70913C27.7477 4.16203 28.5649 6.13193 28.5673 8.18665Z" fill="#F53479"/>
</svg>
