<svg width="33" height="32" viewBox="0 0 33 32" fill="none" xmlns="http://www.w3.org/2000/svg">
<path d="M21.5469 14C21.5469 15.3845 21.1364 16.7379 20.3672 17.889C19.598 19.0401 18.5048 19.9373 17.2257 20.4672C15.9466 20.997 14.5391 21.1356 13.1813 20.8655C11.8234 20.5954 10.5761 19.9287 9.59717 18.9497C8.6182 17.9708 7.95151 16.7235 7.68142 15.3656C7.41132 14.0078 7.54994 12.6003 8.07976 11.3212C8.60957 10.0421 9.50678 8.94888 10.6579 8.17971C11.8091 7.41054 13.1624 7 14.5469 7C16.4034 7 18.1839 7.7375 19.4967 9.05025C20.8094 10.363 21.5469 12.1435 21.5469 14ZM29.2544 28.7075C29.1615 28.8005 29.0513 28.8742 28.9299 28.9246C28.8085 28.9749 28.6783 29.0008 28.5469 29.0008C28.4155 29.0008 28.2854 28.9749 28.164 28.9246C28.0426 28.8742 27.9323 28.8005 27.8394 28.7075L21.5819 22.4488C19.4058 24.2591 16.6155 25.1609 13.7915 24.9665C10.9675 24.7721 8.32706 23.4965 6.41952 21.4051C4.51199 19.3136 3.48416 16.5672 3.54984 13.7373C3.61551 10.9073 4.76964 8.21162 6.77214 6.21088C8.77465 4.21015 11.4714 3.05841 14.3014 2.99524C17.1314 2.93206 19.8768 3.96231 21.9666 5.8717C24.0564 7.78108 25.3297 10.4226 25.5216 13.2468C25.7135 16.071 24.8092 18.8605 22.9969 21.035L29.2544 27.2925C29.3474 27.3854 29.4212 27.4957 29.4715 27.6171C29.5218 27.7385 29.5477 27.8686 29.5477 28C29.5477 28.1314 29.5218 28.2615 29.4715 28.3829C29.4212 28.5043 29.3474 28.6146 29.2544 28.7075ZM14.5469 23C16.3269 23 18.067 22.4722 19.547 21.4832C21.0271 20.4943 22.1806 19.0887 22.8618 17.4442C23.543 15.7996 23.7212 13.99 23.374 12.2442C23.0267 10.4984 22.1695 8.89471 20.9109 7.63604C19.6522 6.37737 18.0486 5.5202 16.3027 5.17293C14.5569 4.82567 12.7473 5.0039 11.1028 5.68509C9.45823 6.36628 8.05262 7.51983 7.06369 8.99987C6.07475 10.4799 5.54691 12.22 5.54691 14C5.54956 16.3861 6.49862 18.6738 8.18588 20.361C9.87313 22.0483 12.1608 22.9974 14.5469 23Z" fill="#1D3630"/>
</svg>
