<svg width="24" height="24" viewBox="0 0 24 24" fill="none" xmlns="http://www.w3.org/2000/svg">
<path d="M21.375 12C21.3749 14.2074 20.5959 16.344 19.1751 18.0335C17.7543 19.7229 15.783 20.8569 13.6083 21.2356C11.4336 21.6142 9.19497 21.2134 7.28678 20.1036C5.37859 18.9938 3.9232 17.2463 3.17696 15.1688C2.43071 13.0914 2.44147 10.8172 3.20734 8.74687C3.97322 6.67655 5.44508 4.94288 7.36368 3.85121C9.28229 2.75954 11.5246 2.37989 13.6956 2.77914C15.8666 3.17839 17.8272 4.33092 19.2319 6.03374C19.3259 6.14769 19.3966 6.27904 19.4399 6.4203C19.4832 6.56157 19.4983 6.70997 19.4842 6.85705C19.4701 7.00413 19.4273 7.147 19.358 7.27751C19.2887 7.40801 19.1944 7.52359 19.0805 7.61765C18.9665 7.71171 18.8352 7.7824 18.6939 7.8257C18.5526 7.869 18.4042 7.88404 18.2572 7.86999C18.1101 7.85593 17.9672 7.81303 17.8367 7.74376C17.7062 7.67449 17.5906 7.58019 17.4966 7.46624C16.4598 6.20948 15.0237 5.34596 13.4276 5.0196C11.8314 4.69324 10.1716 4.92375 8.7248 5.67271C7.27798 6.42168 6.13153 7.64385 5.47651 9.13556C4.8215 10.6273 4.69748 12.2984 5.12513 13.8705C5.55279 15.4425 6.50628 16.8205 7.8267 17.7748C9.14712 18.7292 10.7547 19.2022 12.3816 19.115C14.0084 19.0278 15.5562 18.3857 16.7671 17.2957C17.978 16.2058 18.7787 14.7337 19.0359 13.125H12C11.7016 13.125 11.4155 13.0065 11.2045 12.7955C10.9935 12.5845 10.875 12.2984 10.875 12C10.875 11.7016 10.9935 11.4155 11.2045 11.2045C11.4155 10.9935 11.7016 10.875 12 10.875H20.25C20.5484 10.875 20.8345 10.9935 21.0455 11.2045C21.2565 11.4155 21.375 11.7016 21.375 12Z" fill="white"/>
</svg>
