<svg width="16" height="14" viewBox="0 0 16 14" fill="none" xmlns="http://www.w3.org/2000/svg">
<path d="M11.5156 0.25C10.0637 0.25 8.79242 0.874375 8 1.92977C7.20758 0.874375 5.93633 0.25 4.48438 0.25C3.3286 0.251303 2.22053 0.711011 1.40327 1.52827C0.586011 2.34553 0.126303 3.4536 0.125 4.60938C0.125 9.53125 7.42273 13.5152 7.73352 13.6797C7.81543 13.7238 7.90699 13.7468 8 13.7468C8.09301 13.7468 8.18457 13.7238 8.26648 13.6797C8.57726 13.5152 15.875 9.53125 15.875 4.60938C15.8737 3.4536 15.414 2.34553 14.5967 1.52827C13.7795 0.711011 12.6714 0.251303 11.5156 0.25ZM8 12.5406C6.71609 11.7925 1.25 8.38445 1.25 4.60938C1.25112 3.75191 1.59224 2.92988 2.19856 2.32356C2.80488 1.71724 3.62691 1.37612 4.48438 1.375C5.85195 1.375 7.00016 2.10344 7.47969 3.27344C7.52207 3.37661 7.59416 3.46485 7.6868 3.52695C7.77945 3.58905 7.88847 3.62221 8 3.62221C8.11153 3.62221 8.22055 3.58905 8.3132 3.52695C8.40584 3.46485 8.47793 3.37661 8.52031 3.27344C8.99984 2.10133 10.148 1.375 11.5156 1.375C12.3731 1.37612 13.1951 1.71724 13.8014 2.32356C14.4078 2.92988 14.7489 3.75191 14.75 4.60938C14.75 8.37883 9.2825 11.7918 8 12.5406Z" fill="black"/>
</svg>
