<svg width="33" height="32" viewBox="0 0 33 32" fill="none" xmlns="http://www.w3.org/2000/svg">
<path d="M28.2363 13.585L18.2363 3.58502C17.8612 3.21023 17.3527 2.99969 16.8225 2.99969C16.2923 2.99969 15.7838 3.21023 15.4088 3.58502L5.40877 13.585C5.22215 13.7703 5.07422 13.9907 4.97358 14.2337C4.87293 14.4766 4.82159 14.7371 4.82252 15V27C4.82252 27.2652 4.92788 27.5196 5.11542 27.7071C5.30295 27.8947 5.55731 28 5.82252 28H13.8225C14.0877 28 14.3421 27.8947 14.5296 27.7071C14.7172 27.5196 14.8225 27.2652 14.8225 27V20H18.8225V27C18.8225 27.2652 18.9279 27.5196 19.1154 27.7071C19.303 27.8947 19.5573 28 19.8225 28H27.8225C28.0877 28 28.3421 27.8947 28.5296 27.7071C28.7172 27.5196 28.8225 27.2652 28.8225 27V15C28.8235 14.7371 28.7721 14.4766 28.6715 14.2337C28.5708 13.9907 28.4229 13.7703 28.2363 13.585ZM26.8225 26H20.8225V19C20.8225 18.7348 20.7172 18.4804 20.5296 18.2929C20.3421 18.1054 20.0877 18 19.8225 18H13.8225C13.5573 18 13.303 18.1054 13.1154 18.2929C12.9279 18.4804 12.8225 18.7348 12.8225 19V26H6.82252V15L16.8225 5.00002L26.8225 15V26Z" fill="#1D3630"/>
</svg>
