<svg width="12" height="4" viewBox="0 0 12 4" fill="none" xmlns="http://www.w3.org/2000/svg">
<path d="M7.125 2C7.125 2.2225 7.05902 2.44001 6.9354 2.62502C6.81179 2.81002 6.63609 2.95422 6.43052 3.03936C6.22495 3.12451 5.99875 3.14679 5.78052 3.10338C5.5623 3.05998 5.36184 2.95283 5.20451 2.79549C5.04717 2.63816 4.94003 2.43771 4.89662 2.21948C4.85321 2.00125 4.87549 1.77505 4.96064 1.56948C5.04578 1.36391 5.18998 1.18821 5.37498 1.0646C5.55999 0.94098 5.7775 0.875 6 0.875C6.29837 0.875 6.58452 0.993527 6.7955 1.20451C7.00647 1.41548 7.125 1.70163 7.125 2ZM1.21875 0.875C0.996247 0.875 0.77874 0.94098 0.593734 1.0646C0.408729 1.18821 0.264535 1.36391 0.179386 1.56948C0.0942374 1.77505 0.0719587 2.00125 0.115367 2.21948C0.158775 2.43771 0.265921 2.63816 0.423255 2.79549C0.58059 2.95283 0.781045 3.05998 0.999274 3.10338C1.2175 3.14679 1.4437 3.12451 1.64927 3.03936C1.85484 2.95422 2.03054 2.81002 2.15415 2.62502C2.27777 2.44001 2.34375 2.2225 2.34375 2C2.34375 1.70163 2.22522 1.41548 2.01425 1.20451C1.80327 0.993527 1.51712 0.875 1.21875 0.875ZM10.7813 0.875C10.5587 0.875 10.3412 0.94098 10.1562 1.0646C9.97123 1.18821 9.82704 1.36391 9.74189 1.56948C9.65674 1.77505 9.63446 2.00125 9.67787 2.21948C9.72128 2.43771 9.82842 2.63816 9.98576 2.79549C10.1431 2.95283 10.3435 3.05998 10.5618 3.10338C10.78 3.14679 11.0062 3.12451 11.2118 3.03936C11.4173 2.95422 11.593 2.81002 11.7167 2.62502C11.8403 2.44001 11.9063 2.2225 11.9063 2C11.9063 1.70163 11.7877 1.41548 11.5767 1.20451C11.3658 0.993527 11.0796 0.875 10.7813 0.875Z" fill="#06140E"/>
</svg>
