<svg width="32" height="28" viewBox="0 0 32 28" fill="none" xmlns="http://www.w3.org/2000/svg">
<path d="M29.3333 15.3333H2.66667C1.95942 15.3333 1.28115 15.6142 0.781048 16.1143C0.280951 16.6144 0 17.2927 0 18V24.6666C0 25.3739 0.280951 26.0521 0.781048 26.5522C1.28115 27.0523 1.95942 27.3333 2.66667 27.3333H29.3333C30.0406 27.3333 30.7189 27.0523 31.219 26.5522C31.719 26.0521 32 25.3739 32 24.6666V18C32 17.2927 31.719 16.6144 31.219 16.1143C30.7189 15.6142 30.0406 15.3333 29.3333 15.3333ZM29.3333 24.6666H2.66667V18H29.3333V24.6666ZM29.3333 0.666626H2.66667C1.95942 0.666626 1.28115 0.947577 0.781048 1.44767C0.280951 1.94777 0 2.62605 0 3.33329V9.99996C0 10.7072 0.280951 11.3855 0.781048 11.8856C1.28115 12.3857 1.95942 12.6666 2.66667 12.6666H29.3333C30.0406 12.6666 30.7189 12.3857 31.219 11.8856C31.719 11.3855 32 10.7072 32 9.99996V3.33329C32 2.62605 31.719 1.94777 31.219 1.44767C30.7189 0.947577 30.0406 0.666626 29.3333 0.666626ZM29.3333 9.99996H2.66667V3.33329H29.3333V9.99996Z" fill="#E1DFDA"/>
</svg>
